<svg xmlns="http://www.w3.org/2000/svg" xmlns:xlink="http://www.w3.org/1999/xlink" width="200" height="200" class="icon" p-id="2931" t="1542703545492" version="1.1" viewBox="0 0 1024 1024"><defs><style type="text/css"/></defs><path fill="#bfbfbf" d="M390.144 945.152c-153.6 0-278.528-124.928-278.528-278.528V413.696c0-25.6 20.48-46.08 46.08-46.08h463.872c25.6 0 46.08 20.48 46.08 46.08v252.928c1.024 153.6-123.904 278.528-277.504 278.528zM159.744 414.72v252.928c0 128 103.424 231.424 231.424 231.424s231.424-103.424 231.424-231.424V414.72H159.744z" p-id="2932"/><path fill="#bfbfbf" d="M676.864 775.168c-12.288 0-24.576-1.024-36.864-4.096l10.24-46.08c9.216 2.048 17.408 3.072 26.624 3.072 63.488 0 114.688-46.08 114.688-103.424s-51.2-103.424-114.688-103.424c-9.216 0-18.432 1.024-26.624 3.072l-10.24-46.08c12.288-3.072 24.576-4.096 36.864-4.096 89.088 0 161.792 67.584 161.792 150.528s-72.704 150.528-161.792 150.528z" p-id="2933"/><path fill="#bfbfbf" d="M241.664 362.496c-19.456 0-34.816-15.36-34.816-34.816V157.696c0-19.456 15.36-34.816 34.816-34.816s34.816 15.36 34.816 34.816V327.68c1.024 19.456-15.36 34.816-34.816 34.816zM411.648 362.496c-19.456 0-34.816-15.36-34.816-34.816V51.2c0-19.456 15.36-34.816 34.816-34.816s34.816 15.36 34.816 34.816v276.48c1.024 19.456-15.36 34.816-34.816 34.816zM539.648 362.496c-19.456 0-34.816-15.36-34.816-34.816V178.176c0-19.456 15.36-34.816 34.816-34.816s34.816 15.36 34.816 34.816V327.68c0 19.456-15.36 34.816-34.816 34.816z" p-id="2934"/></svg>